<svg width="1920" height="707" viewBox="0 0 1920 707" fill="none" xmlns="http://www.w3.org/2000/svg">
<rect width="1920" height="707" fill="#ffffff00"/>
<path d="M1920 0L0 153V706.5H1920V0Z" fill="url(#paint0_linear_0_1)"/>
<g opacity="0.42">
<path d="M325 727C325 674.094 396.253 537.413 577.291 477.774C758.329 418.135 840.788 343.906 867 309" stroke="url(#paint1_linear_0_1)" stroke-width="2"/>
<path d="M170 727C187.254 644.723 332.836 525.076 487.252 468.447C680.272 397.661 868 237.703 868 72" stroke="url(#paint2_linear_0_1)" stroke-width="2"/>
<path d="M0 727C21.4492 624.694 202.423 475.921 394.38 405.507C634.325 317.489 796 108.042 796 -98" stroke="url(#paint3_linear_0_1)" stroke-width="2"/>
</g>
<defs>
<linearGradient id="paint0_linear_0_1" x1="2069" y1="787" x2="474.61" y2="1475.95" gradientUnits="userSpaceOnUse">
<stop stop-color="#30D5C8"/>
<stop offset="0.553253" stop-color="#30B3CF"/>
<stop offset="1" stop-color="#3092D5"/>
</linearGradient>
<linearGradient id="paint1_linear_0_1" x1="866.53" y1="309.463" x2="252.542" y2="726.516" gradientUnits="userSpaceOnUse">
<stop stop-color="white" stop-opacity="0.3"/>
<stop offset="1" stop-color="white" stop-opacity="0"/>
</linearGradient>
<linearGradient id="paint2_linear_0_1" x1="170" y1="727" x2="850.49" y2="211.376" gradientUnits="userSpaceOnUse">
<stop stop-color="white" stop-opacity="0.5"/>
<stop offset="0.460068" stop-color="white" stop-opacity="0"/>
<stop offset="1" stop-color="white" stop-opacity="0.5"/>
</linearGradient>
<linearGradient id="paint3_linear_0_1" x1="0" y1="727" x2="846.086" y2="86.0665" gradientUnits="userSpaceOnUse">
<stop stop-color="white" stop-opacity="0.5"/>
<stop offset="0.460068" stop-color="white" stop-opacity="0"/>
<stop offset="1" stop-color="white" stop-opacity="0.5"/>
</linearGradient>
</defs>
</svg>
