<svg width="25" height="24" viewBox="0 0 25 24" fill="none" xmlns="http://www.w3.org/2000/svg">
<g clip-path="url(#clip0_103_53)">
<path d="M24.0527 12C24.0527 5.3726 18.6801 0 12.0527 0C5.42533 0 0.0527344 5.3726 0.0527344 12C0.0527344 17.9895 4.44094 22.954 10.1777 23.8542V15.4688H7.13083V12H10.1777V9.35625C10.1777 6.34875 11.9693 4.6875 14.7103 4.6875C16.0228 4.6875 17.3965 4.92188 17.3965 4.92188V7.875H15.8834C14.3927 7.875 13.9277 8.8001 13.9277 9.75V12H17.2558L16.7238 15.4688H13.9277V23.8542C19.6645 22.954 24.0527 17.9895 24.0527 12Z" fill="#E2E2E2"/>
</g>
<defs>
<clipPath id="clip0_103_53">
<rect width="24" height="24" fill="white" transform="translate(0.0527344)"/>
</clipPath>
</defs>
</svg>
