<svg width="25" height="24" viewBox="0 0 25 24" fill="none" xmlns="http://www.w3.org/2000/svg">
<g clip-path="url(#clip0_103_55)">
<path d="M22.2762 0H1.82461C0.844919 0 0.0527344 0.77344 0.0527344 1.72969V22.2656C0.0527344 23.2218 0.844919 24 1.82461 24H22.2762C23.2558 24 24.0527 23.2219 24.0527 22.2703V1.72969C24.0527 0.77344 23.2558 0 22.2762 0ZM7.17303 20.4515H3.61055V8.9953H7.17303V20.4515ZM5.39178 7.4344C4.24804 7.4344 3.32461 6.51095 3.32461 5.37185C3.32461 4.23281 4.24804 3.30938 5.39178 3.30938C6.53088 3.30938 7.45428 4.23281 7.45428 5.37185C7.45428 6.50625 6.53088 7.4344 5.39178 7.4344ZM20.5043 20.4515H16.9465V14.8828C16.9465 13.5562 16.923 11.8453 15.0949 11.8453C13.2433 11.8453 12.9621 13.2937 12.9621 14.7891V20.4515H9.40898V8.9953H12.8215V10.561H12.8683C13.3418 9.66095 14.5043 8.7094 16.234 8.7094C19.8387 8.7094 20.5043 11.0813 20.5043 14.1657V20.4515Z" fill="#E2E2E2"/>
</g>
<defs>
<clipPath id="clip0_103_55">
<rect width="24" height="24" fill="white" transform="translate(0.0527344)"/>
</clipPath>
</defs>
</svg>
