<svg width="30" height="24" viewBox="0 0 30 24" fill="none" xmlns="http://www.w3.org/2000/svg">
<path d="M28.6869 3.17815C27.6307 3.64601 26.5105 3.95302 25.3633 4.08876C26.5716 3.36585 27.4758 2.22821 27.9074 0.887944C26.7717 1.56216 25.5289 2.03693 24.2329 2.29167C23.6915 1.71413 23.0371 1.25396 22.3105 0.939664C21.5839 0.625353 20.8005 0.463619 20.0089 0.464481C16.8131 0.464481 14.2219 3.05507 14.2219 6.25151C14.2219 6.70464 14.2732 7.1468 14.3721 7.57066C9.56234 7.32927 5.29838 5.02514 2.44405 1.5235C1.9294 2.40671 1.65897 3.41093 1.6605 4.4331C1.65975 5.38592 1.89435 6.32417 2.34347 7.16442C2.7926 8.0048 3.44235 8.72108 4.23496 9.24984C3.31613 9.22066 2.41756 8.97245 1.61397 8.52605C1.61324 8.55017 1.61324 8.57392 1.61324 8.59893C1.61324 11.4019 3.60783 13.7409 6.2548 14.2732C5.40251 14.5038 4.50885 14.5377 3.64153 14.3721C4.37783 16.6706 6.51491 18.3444 9.04723 18.3912C6.99731 19.9999 4.46593 20.8725 1.86014 20.8686C1.39309 20.8686 0.932627 20.8416 0.479492 20.7877C3.12552 22.4878 6.2051 23.3903 9.3502 23.3871C19.9946 23.3871 25.8154 14.5694 25.8154 6.92297C25.8154 6.67249 25.8095 6.42219 25.7985 6.1735C26.932 5.35512 27.9103 4.34072 28.6869 3.17815Z" fill="#E2E2E2"/>
</svg>
