<svg width="22" height="28" viewBox="0 0 22 28" fill="none" xmlns="http://www.w3.org/2000/svg">
<path d="M9.59967 14.9333L7.76634 13.0666C7.49967 12.8 7.18323 12.6666 6.81701 12.6666C6.4499 12.6666 6.13301 12.8 5.86634 13.0666C5.59967 13.3333 5.46101 13.6497 5.45034 14.016C5.43879 14.3831 5.56634 14.7 5.83301 14.9666L8.66634 17.8C8.93301 18.0666 9.24412 18.2 9.59967 18.2C9.95523 18.2 10.2663 18.0666 10.533 17.8L16.1997 12.1333C16.4663 11.8666 16.5997 11.5497 16.5997 11.1826C16.5997 10.8164 16.4663 10.5 16.1997 10.2333C15.933 9.96664 15.6166 9.83331 15.2503 9.83331C14.8832 9.83331 14.5663 9.96664 14.2997 10.2333L9.59967 14.9333ZM10.9997 27.2333H10.6663C10.5552 27.2333 10.4552 27.2111 10.3663 27.1666C7.45523 26.2555 5.05523 24.4498 3.16634 21.7493C1.27745 19.0498 0.333008 16.0666 0.333008 12.8V6.49997C0.333008 5.94442 0.494341 5.44442 0.817008 4.99997C1.13879 4.55553 1.55523 4.2333 2.06634 4.0333L10.0663 1.0333C10.3775 0.922194 10.6886 0.866638 10.9997 0.866638C11.3108 0.866638 11.6219 0.922194 11.933 1.0333L19.933 4.0333C20.4441 4.2333 20.861 4.55553 21.1837 4.99997C21.5055 5.44442 21.6663 5.94442 21.6663 6.49997V12.8C21.6663 16.0666 20.7219 19.0498 18.833 21.7493C16.9441 24.4498 14.5441 26.2555 11.633 27.1666C11.5219 27.2111 11.3108 27.2333 10.9997 27.2333Z" fill="white"/>
</svg>
