<svg width="16" height="20" viewBox="0 0 16 20" fill="none" xmlns="http://www.w3.org/2000/svg">
<path d="M6.95 10.7L5.575 9.29999C5.375 9.09999 5.13767 8.99999 4.863 8.99999C4.58767 8.99999 4.35 9.09999 4.15 9.29999C3.95 9.49999 3.846 9.73733 3.838 10.012C3.82933 10.2873 3.925 10.525 4.125 10.725L6.25 12.85C6.45 13.05 6.68333 13.15 6.95 13.15C7.21667 13.15 7.45 13.05 7.65 12.85L11.9 8.59999C12.1 8.39999 12.2 8.16233 12.2 7.88699C12.2 7.61233 12.1 7.37499 11.9 7.17499C11.7 6.97499 11.4627 6.87499 11.188 6.87499C10.9127 6.87499 10.675 6.97499 10.475 7.17499L6.95 10.7ZM8 19.925H7.75C7.66667 19.925 7.59167 19.9083 7.525 19.875C5.34167 19.1917 3.54167 17.8373 2.125 15.812C0.708333 13.7873 0 11.55 0 9.09999V4.37499C0 3.95833 0.121 3.58333 0.363 3.24999C0.604333 2.91666 0.916667 2.67499 1.3 2.52499L7.3 0.274994C7.53333 0.191661 7.76667 0.149994 8 0.149994C8.23333 0.149994 8.46667 0.191661 8.7 0.274994L14.7 2.52499C15.0833 2.67499 15.396 2.91666 15.638 3.24999C15.8793 3.58333 16 3.95833 16 4.37499V9.09999C16 11.55 15.2917 13.7873 13.875 15.812C12.4583 17.8373 10.6583 19.1917 8.475 19.875C8.39167 19.9083 8.23333 19.925 8 19.925Z" fill="#30D5C8"/>
</svg>
